<svg width="55" height="55" viewBox="0 0 55 55" fill="none" xmlns="http://www.w3.org/2000/svg">
<path d="M27.4807 0.546265C22.1686 0.546265 16.9758 2.12149 12.5589 5.07274C8.14207 8.024 4.69955 12.2187 2.66669 17.1265C0.63383 22.0342 0.101941 27.4346 1.13828 32.6446C2.17463 37.8547 4.73265 42.6404 8.48888 46.3966C12.2451 50.1529 17.0309 52.7109 22.2409 53.7472C27.4509 54.7836 32.8513 54.2517 37.759 52.2188C42.6668 50.186 46.8615 46.7435 49.8128 42.3266C52.764 37.9097 54.3393 32.7169 54.3393 27.4048C54.3393 20.2815 51.5095 13.4499 46.4726 8.41295C41.4356 3.37599 34.6041 0.546265 27.4807 0.546265ZM23.6438 38.129L14.0515 28.5367L17.1018 25.4863L23.6438 32.0283L37.8596 17.8125L40.9215 20.8552L23.6438 38.129Z" fill="white"/>
</svg>
