<svg width="238" height="106" viewBox="0 0 238 106" fill="none" xmlns="http://www.w3.org/2000/svg">
<g clip-path="url(#clip0_114_750)">
<path d="M237.885 9.81459C237.885 4.38757 233.394 -0.000228021 227.982 -0.000228021H126.887C126.887 -0.000228021 120.669 10.3919 119.057 13.0477C117.445 10.3919 111.113 -0.000228021 111.113 -0.000228021H10.3627C4.95098 -0.231165 0.230126 3.9257 -0.000159646 9.46818C-0.000159646 9.58365 -0.000159646 9.81459 -0.000159646 9.93006V95.7231C-0.230445 101.266 4.14498 105.884 9.67183 106.115C9.90211 106.115 10.0173 106.115 10.2475 106.115H100.98C100.98 106.115 117.215 79.3266 119.057 76.2089C120.9 79.442 137.135 106.115 137.135 106.115H227.867C233.394 106.115 237.885 101.843 238 96.3004C238 96.0695 238 95.954 238 95.7231V9.81459H237.885Z" fill="white"/>
<path d="M234.661 9.93022C234.661 6.23523 231.782 3.34852 228.098 3.23305H128.845L119.173 19.3986C115.834 13.8561 109.386 3.23305 109.386 3.23305H10.3628C6.67825 3.00211 3.5694 5.77335 3.33911 9.46834C3.33911 9.46834 3.33911 9.69928 3.33911 9.81475V76.9019V95.4923C3.33911 99.3028 6.21768 102.42 9.90225 102.536C9.90225 102.536 10.0174 102.536 10.1325 102.536H99.1378C99.1378 102.536 114.452 77.0174 119.058 69.5119C123.548 77.0174 138.862 102.42 138.862 102.42H227.752C231.552 102.42 234.546 99.4182 234.661 95.6078C234.661 95.6078 234.661 95.4923 234.661 95.3768V9.93022ZM178.932 39.4901V10.9694C178.817 8.891 180.313 7.15897 182.386 6.92804H182.616H228.098C229.825 6.92804 231.207 8.31366 231.207 10.0457V25.8649H200.118C198.967 25.7494 197.93 26.5577 197.815 27.7124C197.815 27.7124 197.815 27.8278 197.815 27.9433C197.815 29.4444 199.542 30.0217 199.542 30.0217L228.904 40.1829C231.437 41.2222 231.207 42.9542 231.207 42.9542V76.5555H178.932V58.196H209.675C210.941 58.196 211.978 57.2723 211.978 56.0021C211.978 56.0021 211.978 56.0021 211.978 55.8866C211.978 54.1546 209.445 53.3463 209.445 53.3463C209.445 53.3463 186.531 45.7254 182.386 43.9934C178.241 42.2614 178.932 39.4901 178.932 39.4901ZM155.443 6.92804H174.326V76.3245H155.443V6.92804ZM51.8142 6.92804H82.7876V25.9803H68.1645V32.4466H81.521V50.6906H68.1645V57.6187H83.4784V76.5555H51.6991V6.92804H51.8142ZM10.478 6.92804H23.4891V32.4466H31.2036V6.92804H47.6691V76.3245H31.2036V50.4596H23.4891V76.3245H7.02368V9.93022C7.02368 9.93022 7.02368 6.92804 10.3628 6.92804H10.478ZM231.207 95.7232C231.207 97.5707 229.94 99.0718 228.098 99.1873C228.098 99.1873 227.983 99.1873 227.867 99.1873H141.05L119.173 62.8147L97.1804 99.1873H10.2477C8.40539 99.1873 6.90854 97.6862 6.90854 95.9542C6.90854 95.9542 6.90854 95.8387 6.90854 95.7232V80.5969H86.357L108.004 44.6862L85.3207 6.92804H107.313L119.058 26.4422L130.687 6.92804H152.679L129.996 44.5707L151.643 80.4814H231.091V95.6078L231.207 95.7232Z" fill="black"/>
</g>
<defs>
<clipPath id="clip0_114_750">
<rect width="238" height="106" fill="white"/>
</clipPath>
</defs>
</svg>
