<svg width="310" height="66" viewBox="0 0 310 66" fill="none" xmlns="http://www.w3.org/2000/svg">
<g clip-path="url(#clip0_114_783)">
<path d="M309.5 17.7698C306.273 20.5574 302.977 23.2771 299.749 26.0647C297.071 28.3085 294.462 30.5522 291.784 32.8639C291.372 33.2039 291.235 33.6118 291.441 34.1557C293.295 38.9831 295.08 43.8106 296.934 48.706C298.582 53.1254 300.23 57.6129 301.947 62.0323C302.153 62.6442 302.084 62.8482 301.397 62.8482C295.629 62.8482 289.861 62.8482 284.162 62.8482C283.544 62.8482 283.407 62.5083 283.269 61.9643C282.308 57.8848 281.278 53.8733 280.248 49.7938C279.836 48.094 279.424 46.3942 279.012 44.6944C279.012 44.4225 279.012 44.1505 278.669 44.0145C276.746 45.6463 274.892 47.2101 272.969 48.8419C272.489 49.2499 272.008 49.7938 271.459 50.1338C270.566 50.6777 270.223 51.4256 270.017 52.4455C269.399 55.5731 268.712 58.7007 268.094 61.8963C267.957 62.5763 267.682 62.9162 266.858 62.9162C262.051 62.9162 257.245 62.9162 252.438 62.9162C251.477 62.9162 251.477 62.9162 251.614 61.9643C252.781 56.185 253.949 50.4737 255.116 44.6944C256.489 37.9633 257.931 31.2321 259.305 24.5689C260.884 16.8179 262.532 9.06683 264.111 1.38377C264.111 1.11181 264.111 0.839839 264.18 0.635864C269.605 0.635864 275.029 0.635864 280.523 0.635864C280.523 0.907831 280.523 1.1798 280.523 1.51976C280.042 3.89946 279.561 6.27917 279.012 8.65888C277.707 15.0501 276.403 21.4413 275.098 27.8325C274.755 29.3963 274.411 31.0281 274.068 32.7279C274.205 32.6599 274.274 32.6599 274.343 32.5919C277.501 29.6683 280.729 26.7447 283.887 23.821C285.398 22.3932 287.046 21.0334 288.488 19.5375C289.861 18.1097 291.372 17.5658 293.432 17.6338C298.788 17.7698 304.144 17.7018 309.5 17.7018V18.0417V17.7698Z" fill="black"/>
<path d="M30.0953 65.4999C24.1213 65.5679 18.628 65.2279 13.4093 63.3242C6.40533 60.8085 2.148 55.8451 0.774667 48.57C0.5 47.0742 0.5 45.6463 0.5 44.2185C0.5 43.6746 0.706 43.4706 1.25533 43.4026C5.51267 43.1306 9.77 42.8587 14.0273 42.5867C15.8127 42.4507 17.598 42.3147 19.3833 42.1788C19.9327 42.1788 20.0013 42.3827 20.07 42.8587C20.2073 44.1505 20.276 45.4424 20.5507 46.7342C21.306 49.9298 23.5033 51.6976 26.5933 52.3775C29.546 53.0574 32.43 53.0574 35.314 52.1055C37.374 51.4256 39.022 50.2018 39.9147 48.094C40.6013 46.5302 40.1893 44.6945 38.9533 43.4706C37.3053 41.9068 35.1767 41.0229 33.1167 40.343C28.9967 38.9152 24.8767 37.4193 20.894 35.6516C17.804 34.2917 14.714 32.8639 12.3793 30.4162C9.83867 27.8325 8.46533 24.6369 8.328 20.9654C8.19067 17.4298 8.87733 14.0982 10.8687 11.1066C13.272 7.43503 16.6367 5.12332 20.6193 3.49152C25.0827 1.65574 29.6833 0.907837 34.49 0.907837C38.8847 0.907837 43.2107 1.04382 47.5367 1.9957C51.6567 2.94759 55.5707 4.4434 58.7293 7.29905C61.6133 9.95072 63.33 13.2143 64.0853 17.0219C64.566 19.4016 64.566 19.4016 62.094 19.6055C60.9267 19.6735 59.7593 19.6055 58.592 19.7415C56.0513 19.9455 53.442 20.0135 50.8327 20.0815C49.1847 20.1495 47.5367 20.2175 45.8887 20.3534C44.8587 20.4214 44.79 20.3534 44.6527 19.3336C44.1033 15.594 41.9747 13.4183 38.1293 12.6704C35.4513 12.1265 32.842 12.1265 30.3013 13.4183C28.7907 14.1662 27.8293 15.3901 27.7607 17.1578C27.7607 18.8576 28.928 19.7415 30.2327 20.4214C32.636 21.7813 35.1767 22.5972 37.7173 23.5491C41.8373 25.1129 45.8887 26.6767 49.734 28.7164C53.03 30.4842 55.708 32.9319 57.6993 36.0595C59.1413 38.3712 59.6907 40.8869 59.828 43.6066C59.9653 47.3461 59.0727 50.8817 56.944 54.0093C54.678 57.4769 51.5193 59.9926 47.9487 61.9643C45.202 63.4601 42.2493 64.208 39.1593 64.752C36.0007 65.2279 32.7733 65.4319 30.0267 65.3639L30.0953 65.4999Z" fill="black"/>
<path d="M192.629 1.2478C201.831 1.2478 211.101 1.2478 220.302 1.2478C221.538 1.2478 221.538 1.2478 221.263 2.40366C220.302 6.9591 219.341 11.5145 218.448 16.07C218.311 16.7499 217.899 16.6819 217.418 16.6819C211.513 16.6819 205.676 16.6819 199.771 16.6819C198.535 16.6819 198.535 16.6819 198.329 17.8378C196.818 25.0449 195.239 32.252 193.728 39.4591C192.149 46.8022 190.569 54.1453 189.059 61.4884C188.921 62.1683 188.647 62.4403 187.891 62.4403C182.261 62.4403 176.63 62.4403 170.999 62.4403C169.695 62.4403 169.695 62.4403 169.969 61.2164C171.617 53.5334 173.265 45.8503 174.845 38.1673C176.287 31.3001 177.797 24.365 179.239 17.4978C179.445 16.6139 179.445 16.6139 178.484 16.6139C172.922 16.6139 167.36 16.6139 161.798 16.6139C160.631 16.6139 160.631 16.6139 160.837 15.4581C161.729 11.0386 162.691 6.61914 163.583 2.19968C163.721 1.31579 164.133 1.11182 164.957 1.11182C174.158 1.11182 183.428 1.11182 192.629 1.11182V1.2478Z" fill="black"/>
<path d="M134.537 24.161C134.949 23.753 135.43 23.4131 135.842 23.0051C139.413 19.6055 143.601 17.4978 148.545 16.8179C151.567 16.4099 154.588 16.4779 157.541 17.2938C161.249 18.3817 164.133 21.7813 164.682 25.5888C165.094 28.3085 164.476 30.9601 163.927 33.5438C162.622 40.139 161.111 46.6662 159.601 53.1934C158.983 55.9811 158.365 58.7687 157.747 61.6244C157.609 62.1683 157.403 62.4403 156.785 62.4403C151.292 62.4403 145.867 62.4403 140.374 62.4403C139.687 62.4403 139.481 62.2363 139.619 61.5564C141.129 54.8932 142.571 48.23 144.082 41.4988C144.631 39.0511 145.112 36.6034 145.524 34.1557C145.661 33.4078 145.661 32.5919 145.524 31.844C145.318 30.1442 143.739 29.1924 141.816 29.3963C138.726 29.7363 136.597 31.5041 134.949 33.8838C132.958 36.7394 131.997 40.003 131.241 43.4026C129.868 49.3859 128.495 55.4371 127.121 61.4204C126.915 62.2363 126.572 62.4403 125.817 62.4403C120.461 62.4403 115.105 62.4403 109.749 62.4403C108.719 62.4403 108.719 62.4403 108.925 61.4204C110.229 55.5731 111.534 49.7258 112.839 43.9465C114.281 37.4873 115.723 31.0281 117.165 24.6369C117.645 22.5972 118.126 20.4894 118.538 18.4497C118.675 17.7698 118.95 17.5658 119.637 17.5658C124.649 17.5658 129.662 17.5658 134.675 17.5658C135.361 17.5658 135.636 17.7698 135.43 18.5177C135.018 20.1495 134.743 21.8493 134.4 23.4811C134.4 23.685 134.194 23.889 134.4 24.229L134.537 24.161Z" fill="black"/>
<path d="M90.0414 55.9811C89.6294 56.457 89.286 56.933 88.874 57.3409C85.3034 60.8085 81.046 62.9162 76.102 63.5961C72.5314 64.0721 69.0294 64.0041 65.7334 62.3723C62.1627 60.5365 60.3774 57.5449 60.1714 53.6014C60.034 50.8817 60.652 48.23 61.2014 45.5104C62.3 39.6631 63.742 33.9518 65.0467 28.1725C65.7334 25.0449 66.4887 21.8493 67.1754 18.7217C67.3127 18.0417 67.5874 17.7698 68.3427 17.7698C73.6987 17.7698 79.0547 17.7698 84.4107 17.7698C85.3034 17.7698 85.3034 17.7698 85.0974 18.6537C83.1747 26.9486 81.252 35.3116 79.4667 43.6066C79.192 44.8304 78.8487 46.1223 78.8487 47.4141C78.8487 47.9581 78.9174 48.502 79.0547 49.0459C79.4667 50.4738 80.634 51.0857 82.3507 51.0177C85.6467 50.8817 87.844 49.0459 89.5607 46.4622C91.6894 43.1307 92.6507 39.3911 93.4747 35.5836C94.7107 29.8723 96.0154 24.161 97.2514 18.4497C97.3887 17.9738 97.5947 17.8378 98.0754 17.8378C103.569 17.8378 109.062 17.8378 114.555 17.8378C115.105 17.8378 115.242 18.0417 115.173 18.5857C113.525 25.9968 111.877 33.4079 110.298 40.8189C108.925 47.2781 107.483 53.6694 106.109 60.1286C105.972 60.7405 105.835 61.2844 105.697 61.8963C105.629 62.5763 105.285 62.7802 104.599 62.7802C101.509 62.7802 98.35 62.7802 95.26 62.7802C93.406 62.7802 91.552 62.7802 89.698 62.7802C88.7367 62.7802 88.7367 62.7802 88.9427 61.8284C89.3547 59.9246 89.8354 58.0888 90.2474 56.185C90.2474 56.185 90.11 56.0491 90.0414 55.9811Z" fill="black"/>
<path d="M234.928 44.9664C229.778 44.9664 224.697 44.9664 219.547 44.9664C218.517 44.9664 218.517 44.9664 218.654 45.9862C218.86 47.686 219.272 49.3178 220.233 50.7457C221.401 52.5134 223.117 53.3293 225.177 53.5333C227.718 53.7373 229.984 53.1934 231.907 51.5616C232.387 51.1536 232.799 50.7457 233.143 50.2697C233.486 49.7258 233.967 49.5898 234.516 49.6578C236.301 49.8618 238.087 49.9977 239.872 50.2017C241.726 50.4057 243.58 50.6097 245.434 50.7457C246.739 50.8816 248.043 50.9496 249.348 51.0856C249.829 51.0856 249.966 51.2896 249.691 51.7655C247.494 55.6411 244.61 58.8367 240.627 60.9444C237.675 62.5082 234.516 63.3241 231.22 63.7321C228.611 64.072 226.001 64.072 223.392 64.004C219.135 63.936 214.946 63.1201 211.169 61.0804C208.697 59.7206 206.843 57.7488 205.333 55.5051C203.547 52.9214 202.517 49.9978 202.037 46.9381C201.419 42.1787 201.968 37.5553 203.753 33.1358C205.058 29.9402 206.912 27.0846 209.384 24.6369C213.229 20.7614 217.761 18.1097 223.255 17.2258C225.521 16.8858 227.855 16.6819 230.19 16.7498C234.035 16.8858 237.881 17.2258 241.52 18.6536C245.022 20.0134 247.631 22.3931 249.623 25.5208C251.957 29.1923 252.644 33.2038 252.369 37.4193C252.232 39.731 251.751 42.0427 251.477 44.2865C251.408 44.8984 250.996 45.0344 250.447 45.0344C247.151 45.0344 243.923 45.0344 240.627 45.0344C238.705 45.0344 236.713 45.0344 234.791 45.0344L234.928 44.9664ZM227.993 36.2634C230.327 36.2634 232.662 36.2634 235.065 36.2634C235.752 36.2634 236.027 35.9915 236.027 35.3796C236.027 34.4957 236.027 33.6798 236.027 32.7959C235.889 30.6201 234.928 28.8524 232.868 27.9005C229.16 26.1327 225.589 27.3565 223.117 30.2122C221.813 31.708 220.989 33.5438 220.302 35.4475C220.027 36.1955 220.096 36.2634 220.92 36.2634C223.255 36.2634 225.589 36.2634 227.993 36.2634Z" fill="black"/>
</g>
<defs>
<clipPath id="clip0_114_783">
<rect width="309" height="65" fill="white" transform="translate(0.5 0.499878)"/>
</clipPath>
</defs>
</svg>
