<svg width="344" height="107" viewBox="0 0 344 107" fill="none" xmlns="http://www.w3.org/2000/svg">
<g clip-path="url(#clip0_114_734)">
<path fill-rule="evenodd" clip-rule="evenodd" d="M249.177 81.9161H256.307V106.298H249.177V81.9161Z" fill="black"/>
<path fill-rule="evenodd" clip-rule="evenodd" d="M187.329 49.4653H209.608V54.5522H193.924V58.9375H208.361V63.8489H193.924V68.7604H209.608V73.8473H187.329V49.4653Z" fill="black"/>
<path fill-rule="evenodd" clip-rule="evenodd" d="M277.695 87.3541V81.9164C275.735 81.3901 273.239 81.2147 270.388 81.2147C266.288 81.2147 259.159 82.0918 259.515 89.2836C259.871 93.6688 263.08 94.8967 267.714 96.3C271.635 97.5278 272.348 97.8787 272.17 99.6328C271.813 101.387 269.675 101.562 268.427 101.562C265.932 101.562 262.189 101.036 259.693 100.159V106.123C259.693 106.123 264.327 107 268.605 107.175C271.813 107.175 278.943 106.123 279.478 99.4573C279.478 95.0721 276.804 93.4934 274.665 92.4409C269.14 90.1606 267.714 90.336 267.001 89.2836C266.11 87.3541 268.427 86.477 271.101 86.6524C271.992 86.6524 273.596 86.6524 277.695 87.3541Z" fill="black"/>
<path fill-rule="evenodd" clip-rule="evenodd" d="M206.222 106.298H215.134V81.7408H208.539V98.2294L198.379 81.7408H189.467V106.298H196.24V89.8097L206.4 106.298H206.222Z" fill="black"/>
<path fill-rule="evenodd" clip-rule="evenodd" d="M237.948 73.8473L229.571 63.8489C232.066 63.8489 236.166 61.9194 236.166 57.3588C236.166 51.2194 233.136 49.4653 228.323 49.4653H212.104V74.0227H219.055V54.7276H225.65C226.897 54.7276 229.036 54.7276 229.036 57.7096C229.036 60.6916 227.254 60.5162 225.472 60.5162H219.59L229.036 74.0227H237.592L237.948 73.8473Z" fill="black"/>
<path fill-rule="evenodd" clip-rule="evenodd" d="M164.158 81.9161H186.437V87.003H170.753V91.3883H185.19V96.2998H170.753V101.211H186.437V106.298H164.158V81.9161Z" fill="black"/>
<path fill-rule="evenodd" clip-rule="evenodd" d="M236.166 106.298H245.078V81.7408H238.483V98.2294L228.323 81.7408H219.412V106.298H226.185V89.8097L236.166 106.298Z" fill="black"/>
<path fill-rule="evenodd" clip-rule="evenodd" d="M329.563 106.298H338.475V81.7408H331.88V98.2294L321.72 81.7408H312.808V106.298H319.581V89.8097L329.741 106.298H329.563Z" fill="black"/>
<path fill-rule="evenodd" clip-rule="evenodd" d="M248.821 58.5868L243.117 49.29H235.275L246.504 65.2523V73.8474H253.098V65.2523L264.327 49.29H256.485L250.603 58.5868C250.068 59.4638 249.712 60.3409 249.712 60.3409C249.712 60.3409 249.355 59.4638 248.821 58.5868Z" fill="black"/>
<path fill-rule="evenodd" clip-rule="evenodd" d="M295.519 107.175C286.251 107.175 281.082 102.264 281.082 94.0196C281.082 85.7754 286.251 80.6885 295.519 80.8639C304.787 80.6885 309.956 85.7754 309.956 94.0196C309.956 102.264 304.787 107.351 295.519 107.175ZM295.519 101.211C300.51 101.211 303.183 98.4049 303.183 94.0196C303.183 89.6344 300.51 86.6524 295.519 86.6524C290.528 86.6524 287.855 89.459 287.855 94.0196C287.855 98.5803 290.528 101.211 295.519 101.211Z" fill="black"/>
<path fill-rule="evenodd" clip-rule="evenodd" d="M150.077 81.9163C158.989 81.9163 161.662 89.1081 161.662 94.1949C161.662 99.8081 158.989 106.298 150.255 106.298H134.926V81.7408H150.077V81.9163ZM154.711 94.1949C154.711 88.9326 151.503 87.354 147.581 87.354H141.878V100.861H147.403C151.502 100.861 154.711 99.8081 154.711 94.0195V94.1949Z" fill="black"/>
<path fill-rule="evenodd" clip-rule="evenodd" d="M143.66 68.7604L141.521 74.0227H134.035L144.551 49.4653H153.285L163.623 74.0227H156.137L153.998 68.7604H143.482H143.66ZM149.898 57.5342C149.898 57.5342 149.364 56.1309 149.007 54.903C148.651 56.1309 148.116 57.5342 148.116 57.5342L145.621 63.8489H152.215L149.72 57.5342H149.898Z" fill="black"/>
<path fill-rule="evenodd" clip-rule="evenodd" d="M4.99075 88.231C4.99075 85.2491 5.52547 83.8458 6.5949 81.2147C7.30785 79.8114 6.95137 80.513 8.912 76.8294C12.655 70.1638 40.9949 20.3474 40.9949 20.3474C42.9555 17.1901 45.8073 12.1032 45.8073 12.1032C49.7286 5.4376 53.4716 2.45563 58.284 1.05235C58.8187 1.05235 59.1752 0.876948 59.7099 0.701538H67.7306C69.8695 1.05236 71.6519 1.9294 73.256 2.80645C76.2861 4.56055 78.9597 7.71793 80.9203 11.0507C81.6332 12.1032 81.455 11.7523 83.9503 16.1376L119.242 77.1802C122.093 82.0917 124.054 86.4769 122.272 92.7917C119.598 101.738 112.468 105.772 103.022 106.474C100.348 106.824 101.061 106.474 98.7441 106.649C84.8415 106.649 35.826 106.649 29.0529 106.649C24.4187 106.649 27.0923 106.649 25.1317 106.649C11.7638 106.649 4.99075 97.1769 4.99075 88.5819V88.231ZM46.342 69.2868L72.0084 24.9081C73.969 21.2245 74.1472 18.5933 73.4343 16.1376C71.8301 10.6999 66.1265 7.3671 60.4229 9.1212C57.9275 9.82284 55.9669 11.2261 53.8281 14.9097L22.2799 70.1638C24.4187 69.4622 26.7358 69.1114 28.5182 69.1114H29.4094L58.997 17.3655C60.0664 15.6114 60.9576 14.9097 62.027 14.5589C64.7006 13.6819 67.0177 15.2606 67.7306 17.5409C68.0871 18.7687 67.7306 19.9966 66.8395 21.5753L39.3908 69.1114H46.1638L46.342 69.2868ZM56.3234 69.2868H71.4736L63.8094 56.3064L56.3234 69.2868ZM68.6218 47.8868L93.9317 91.5638C95.7141 94.3704 97.3182 96.4753 100.527 97.5278C106.052 99.2819 112.112 95.7737 113.538 90.336C114.429 86.8278 113.36 84.372 111.934 82.0917L79.4944 26.3114C79.1379 29.2933 77.8902 31.5737 76.999 33.5032L106.765 84.8983C107.834 86.8278 108.013 88.0556 107.656 89.1081C107.121 91.3884 104.448 92.7917 102.131 92.0901C101.061 91.7392 100.17 91.0376 98.9224 88.9327L71.8301 42.0983L68.4436 48.0622L68.6218 47.8868ZM89.1192 97.8786C86.4457 95.7737 85.5545 94.195 84.3068 92.0901H24.2405C23.1711 92.0901 21.9234 91.7392 21.0322 90.8622C19.2498 89.2835 19.0716 86.4769 21.0322 84.7228C21.9234 83.8458 23.3493 83.495 24.4187 83.495H79.6726L76.2861 77.531H24.7752C21.3887 77.531 18.7151 78.7589 16.7545 80.6884C12.655 84.5474 12.655 91.0376 17.111 95.2474C19.7845 97.5278 22.1016 97.7032 25.3099 97.8786H89.2975H89.1192Z" fill="black"/>
<path fill-rule="evenodd" clip-rule="evenodd" d="M172.178 66.6555L165.405 49.4653H157.741L168.435 73.8473H175.921L186.616 49.4653H178.951L172.178 66.6555Z" fill="black"/>
</g>
<defs>
<clipPath id="clip0_114_734">
<rect width="344" height="107" fill="white"/>
</clipPath>
</defs>
</svg>
