<svg width="120" height="36" viewBox="0 0 120 36" fill="none" xmlns="http://www.w3.org/2000/svg">
<g clip-path="url(#clip0_114_850)">
<path fill-rule="evenodd" clip-rule="evenodd" d="M24.8895 19.1818H38.9964C39.5221 19.1818 39.9519 19.6118 39.9519 20.1376V25.4047H38.041V20.6814H24.8895V25.4047H22.9785V19.1818H24.8895ZM41.3008 19.1818H43.2117V25.4047H41.3008V19.1818ZM46.4339 23.8958H61.4498V25.3953H46.4339V25.4047H45.4785C44.9529 25.4047 44.5231 24.9746 44.5231 24.4488V19.1819H46.4339V23.8958ZM64.5411 20.8408H77.8238V23.671H64.5411V20.8408ZM64.335 19.0602H78.03C78.8955 19.0602 79.6036 19.7686 79.6036 20.6346V23.8774C79.6036 24.7433 78.8955 25.4518 78.03 25.4518H64.335C63.4694 25.4518 62.7614 24.7433 62.7614 23.8774V20.6346C62.7614 19.7686 63.4694 19.0602 64.335 19.0602ZM82.91 22.8649H97.9257V21.3654H82.91V20.6906H97.9257V19.1911H82.91V19.1818H81.9545C81.4289 19.1818 80.9991 19.6118 80.9991 20.1376V25.4047H82.91V22.8649ZM101.082 22.8649H116.098V21.3654H101.082V20.6906H116.098V19.1911H101.082V19.1818H100.127C99.6013 19.1818 99.1715 19.6118 99.1715 20.1376V25.4047H101.082V22.8649ZM2.87933 19.1818H5.16491L10.9632 24.3801L16.7614 19.1818H19.0844L12.1434 25.4047H9.82036L2.87933 19.1818ZM19.9061 19.1818H21.817V25.4047H19.9061V19.1818Z" fill="white"/>
<path fill-rule="evenodd" clip-rule="evenodd" d="M93.0299 28.8277C93.274 29.0007 93.5805 29.0874 93.9437 29.0874C94.9768 29.0874 96.1176 28.5031 97.3663 27.3348C97.8318 26.902 98.2063 26.4584 98.4788 26.0039C98.7 25.6434 98.8138 25.3693 98.8138 25.1854C98.8138 25.0592 98.7682 24.9618 98.6717 24.9004C98.581 24.8355 98.4333 24.803 98.2348 24.803C97.7126 24.803 97.0768 25.0338 96.3219 25.4919C95.601 25.9355 94.9086 26.5594 94.2446 27.3671C93.6316 28.1064 93.2285 28.5933 93.0299 28.8277ZM100.758 29.5237H108.515C108.408 29.3541 108.352 29.1588 108.352 28.9359C108.352 28.1198 108.752 27.2421 109.547 26.2993C109.457 26.3449 109.361 26.3919 109.259 26.4402C108.288 26.9056 107.363 27.14 106.489 27.14C106.137 27.14 105.814 27.0786 105.513 26.9596C105.257 26.8622 105.133 26.6855 105.133 26.4331C105.133 26.2564 105.252 26.0545 105.485 25.8309C104.605 26.224 103.572 26.902 102.38 27.8612C101.836 28.329 101.297 28.8825 100.758 29.5237ZM2.87933 29.5237H90.8737C92.729 27.1576 94.6969 24.8486 95.3797 24.1251C95.8019 23.6778 96.0842 23.3635 96.2254 23.1983C96.6164 22.741 96.9917 22.5095 97.3606 22.5095C97.7409 22.5095 97.9283 22.6537 97.9283 22.9423C97.9283 23.1045 97.7977 23.3246 97.5366 23.5986C97.2244 23.952 96.9747 24.2333 96.7874 24.4461C97.2414 24.2621 97.5763 24.1359 97.7977 24.0638C98.2516 23.9231 98.6945 23.851 99.1258 23.851C99.614 23.851 99.9779 23.9417 100.221 24.1214C100.465 24.3011 100.585 24.5687 100.585 24.9293C100.585 25.4233 100.312 26.0148 99.7729 26.7072C98.9271 27.7999 97.9112 28.6618 96.7135 29.2893C96.5515 29.3742 96.3911 29.4524 96.2323 29.5237H98.9976C99.1587 29.2006 99.4026 28.7739 99.729 28.2435C100.688 26.6964 101.687 25.4955 102.732 24.6444C103.373 24.1143 103.912 23.851 104.344 23.851C104.491 23.851 104.622 23.8799 104.747 23.9339C104.889 24.0061 104.962 24.0926 104.962 24.2009C104.962 24.3053 104.849 24.4532 104.627 24.6444C104.588 24.6769 104.293 24.9149 103.748 25.3513C103.248 25.766 102.868 26.1808 102.601 26.5882C103.685 25.8489 104.939 25.1276 106.359 24.4208C106.869 24.1684 107.414 23.9303 107.988 23.7104C108.277 23.6022 108.459 23.5481 108.538 23.5481C108.703 23.5481 108.867 23.6238 109.038 23.7789C109.134 23.8619 109.185 23.9412 109.185 24.0098C109.185 24.1359 108.975 24.3089 108.555 24.5254C107.431 25.0951 106.869 25.5243 106.869 25.8128C106.869 25.9751 107.011 26.0545 107.301 26.0545C107.772 26.0545 108.589 25.8056 109.741 25.3044C109.94 25.2214 110.105 25.1781 110.235 25.1781C110.326 25.1781 110.412 25.2078 110.502 25.2646C110.514 25.2725 110.527 25.2815 110.539 25.2901C111.272 24.6468 112.096 24.1232 113.006 23.7212C113.727 23.4039 114.38 23.2451 114.965 23.2451C115.867 23.2451 116.321 23.5986 116.321 24.3018C116.321 25.2358 115.64 26.4223 114.284 27.8576C113.594 28.5812 112.915 29.1366 112.248 29.5237H116.245V30.2418H100.152C99.9319 30.4387 99.6745 30.537 99.3829 30.537C99.0117 30.537 98.809 30.4386 98.7708 30.2418H92.0182C90.6905 31.9583 89.6535 33.4145 88.578 35.2715C88.3029 35.7463 88.0274 36 87.687 36C87.5222 36 87.3581 35.9256 87.193 35.7873C87.076 35.6891 87.0114 35.5817 87.0114 35.459C87.0114 34.7538 88.5433 32.5437 90.3156 30.2418H2.87933V29.5237ZM113.245 27.2374C112.967 27.0931 112.83 26.9849 112.83 26.9092C112.83 26.8514 113.006 26.6964 113.358 26.444C114.357 25.7299 114.857 25.1565 114.857 24.7201C114.857 24.6625 114.828 24.6084 114.772 24.5506C114.687 24.4461 114.545 24.3919 114.357 24.3919C114.005 24.3919 113.483 24.6126 112.796 25.0483C111.912 25.6102 111.236 26.1914 110.77 26.7901C110.225 27.4753 109.953 28.0415 109.953 28.4924C109.953 28.6148 110.004 28.7194 110.1 28.8096C110.248 28.9359 110.429 29.0007 110.651 29.0007C111.184 29.0007 111.752 28.7483 112.365 28.2398C112.632 28.027 112.847 27.8107 113.012 27.5835C113.177 27.3599 113.256 27.241 113.245 27.2374Z" fill="#EF7C00"/>
<path d="M51.3925 8.56491C51.3925 8.56491 51.2353 8.07339 51.5005 8.02427C51.7659 7.97512 56.1678 8.80087 56.1678 8.80087C56.1678 8.80087 55.9713 7.62121 55.5389 7.28699C55.1066 6.95276 51.8346 6.86426 51.2353 7.23783C50.6359 7.61141 50.8914 8.62391 51.3925 8.56491Z" fill="white"/>
<path d="M105.901 6.40222C100.977 4.04293 91.0196 1.21176 82.4516 0.268015C76.6901 -0.366574 66.912 0.243458 60.6226 0.878572C57.143 1.22995 53.7483 2.15874 50.5702 3.61896L37.9607 9.41273C37.9607 9.41273 15.7153 8.91883 7.69747 11.4354C3.93685 12.6158 1.51343 14.3152 0 15.7871H2.59055C4.88089 13.4881 8.04802 12.0646 11.5492 12.0646C14.4576 12.0646 17.1396 13.0461 19.2777 14.6976L20.9818 16.1541L20.9761 16.1069C20.8687 15.2217 21.5251 14.4278 22.4143 14.3671C25.6102 14.1492 31.9972 13.7506 40.0412 13.4384C40.4424 13.4228 40.7549 13.7831 40.6873 14.1791C40.6393 14.4597 40.6202 14.6729 40.6202 14.6729C40.8167 14.0962 41.4828 13.384 41.4828 13.384C43.8199 10.3736 46.2668 9.68856 46.2668 9.68856C45.3827 9.69909 44.878 9.70527 44.878 9.70527L53.7586 5.17373C56.8674 3.58743 60.2698 2.655 63.7534 2.44759C68.713 2.15224 73.377 1.77662 77.0059 1.72862L74.8656 9.41733C69.8884 9.43496 61.4723 9.51839 54.8202 9.59091C54.5766 9.29552 54.4195 8.96029 54.3893 8.8697C54.3402 8.72221 54.1404 8.80088 54.1404 8.80088C54.0225 9.181 54.2583 9.59708 54.2583 9.59708C54.571 10.6995 55.6863 11.619 55.6863 11.619C52.2763 11.5974 50.3985 10.1554 49.8412 9.64672C48.6865 9.66 47.6864 9.67172 46.8906 9.68114C44.8302 10.4564 43.0377 12.3551 42.1947 13.3584C53.9734 12.941 68.8032 12.7434 82.3453 13.5227C83.1373 13.5683 83.6845 14.3345 83.4766 15.1005L83.4735 15.1121C83.8469 14.7385 84.058 13.6264 84.058 13.6264C84.4925 11.6199 83.9275 9.37986 83.6323 8.42354C81.467 8.99691 79.0387 9.41404 76.5562 9.41404C76.4073 9.41404 76.2512 9.41418 76.0915 9.41436L77.9016 1.72326C78.7981 1.72593 79.621 1.75283 80.3562 1.81159C91.159 2.67536 91.8806 5.14811 91.8806 5.14811C91.8806 5.14811 88.6464 7.01494 84.1591 8.27872C84.9888 10.0131 84.8281 12.4363 84.6707 13.6666C86.6279 13.7974 88.5531 13.9495 90.4309 14.1264C91.4911 14.2263 92.1491 15.3465 91.7049 16.3148C91.6942 16.3382 91.6878 16.3507 91.6878 16.3507L94.1481 14.5152C96.2422 12.9738 98.833 12.0646 101.631 12.0646C104.439 12.0646 107.036 12.98 109.134 14.5278L111.379 16.3507C111.379 15.3439 112.194 14.5278 113.201 14.5278H116.016L117.378 10.3345L118.767 10.6742C118.767 10.6742 119.186 9.44426 120 9.23349C120 9.23349 110.828 8.76158 105.901 6.40222Z" fill="white"/>
<path d="M53.0792 6.32362C53.0792 6.32362 58.2672 3.2827 62.4595 3.04679C66.6518 2.81083 76.3727 2.20792 76.3727 2.20792L75.0889 6.32362H53.0792Z" fill="url(#paint0_linear_114_850)"/>
<path d="M78.2521 2.20789L77.2374 6.32359H88.478L90.8886 5.17013C90.8886 5.17013 89.3427 3.78079 85.884 3.20407C82.4254 2.62731 78.2521 2.20789 78.2521 2.20789Z" fill="url(#paint1_linear_114_850)"/>
</g>
<defs>
<linearGradient id="paint0_linear_114_850" x1="64.726" y1="1.48112" x2="64.726" y2="6.20043" gradientUnits="userSpaceOnUse">
<stop stop-color="#969FB0"/>
<stop offset="0.1692" stop-color="#969FB0" stop-opacity="0.8634"/>
<stop offset="0.5273" stop-color="#969FB0" stop-opacity="0.5118"/>
<stop offset="1" stop-color="#969FB0" stop-opacity="0"/>
</linearGradient>
<linearGradient id="paint1_linear_114_850" x1="84.063" y1="1.07095e-06" x2="84.063" y2="1.07095e-06" gradientUnits="userSpaceOnUse">
<stop stop-color="#969FB0"/>
<stop offset="0.1692" stop-color="#969FB0" stop-opacity="0.8634"/>
<stop offset="0.5273" stop-color="#969FB0" stop-opacity="0.5118"/>
<stop offset="1" stop-color="#969FB0" stop-opacity="0"/>
</linearGradient>
<clipPath id="clip0_114_850">
<rect width="120" height="36" fill="white"/>
</clipPath>
</defs>
</svg>
