<svg width="310" height="112" viewBox="0 0 310 112" fill="none" xmlns="http://www.w3.org/2000/svg">
<g clip-path="url(#clip0_114_773)">
<path d="M274.892 15.6277C276.059 12.5433 277.227 9.45884 279.012 6.85419C280.797 4.24954 283.338 2.12469 285.81 -0.000158798C249.417 -0.000158798 213.092 -0.137246 176.699 0.0683847C171.823 0.479645 166.811 0.342559 161.867 3.83827C159.189 5.6204 156.579 8.91049 155.275 11.6522C153.627 16.1076 151.704 20.7685 149.85 25.3609C156.579 22.2765 163.652 21.7281 170.656 22.2765C174.021 22.6192 177.248 23.6473 180.544 24.6069C184.595 26.252 188.509 28.5139 192.08 32.4209L195.857 23.3046H218.036L225.521 41.3315V23.3046H244.541V54.6975H259.442L274.823 15.6963L274.892 15.6277Z" fill="black"/>
<path d="M235.271 68.2691C228.954 68.2691 222.705 68.2691 216.388 68.2691L215.083 63.8823H198.741L197.436 68.2691H180.887C176.699 69.5714 172.579 70.9423 168.321 71.2165C164.064 71.4907 159.807 70.7367 155.481 69.9142C153.97 69.5029 152.459 68.9545 150.949 68.2691H132.409L122.521 92.8077H211.787C212.268 95.9607 213.023 99.1137 214.877 102.472C216.113 104.323 217.418 106.037 219.821 108.093C222.911 110.286 226.207 110.903 229.435 110.698C232.387 110.423 235.203 109.395 237.743 106.859C242.344 102.335 243.374 97.5372 244.335 92.8077L254.017 68.2691C247.7 68.2691 241.451 68.2691 235.134 68.2691H235.271Z" fill="black"/>
<path d="M174.707 39.8236C169.969 34.6143 165.094 33.1749 160.013 36.6021C154.863 40.8518 154.588 45.4442 156.167 50.1051C156.854 51.3389 157.472 52.5727 158.433 53.5323C161.935 56.6853 166.33 57.8505 170.381 55.5201C172.098 54.5605 173.883 52.7098 175.257 50.722H184.458L188.99 39.8236H174.707Z" fill="black"/>
<path d="M205.195 50.9962H208.697L206.981 45.5813L205.195 50.9962Z" fill="black"/>
<path d="M86.196 95.6865H208.766C208.491 98.8395 209.59 101.855 211.65 105.283C214.259 108.984 216.8 111.177 220.233 112H101.783C97.938 112.274 94.5733 110.698 91.14 107.682C87.844 104.254 85.99 100.073 86.2646 95.7551L86.196 95.6865Z" fill="black"/>
<path d="M309.5 16.1761H278.531C278.531 11.7208 280.111 8.15654 283.132 5.27772C286.016 2.12472 289.724 0.548218 293.775 0.548218C297.827 0.548218 301.947 2.12472 304.968 5.27772C307.852 8.15654 309.431 11.7208 309.431 16.1761H309.5Z" fill="black"/>
<path fill-rule="evenodd" clip-rule="evenodd" d="M217.83 23.2362H196.063L192.149 32.6266C191.531 31.8726 190.844 31.1872 190.089 30.5018C187.891 28.7882 185.625 27.0746 183.153 25.7723C177.729 23.1676 171.617 22.0024 165.849 21.9338C162.691 21.9338 159.532 22.4822 156.442 23.0991C153.558 23.8531 150.674 24.8812 147.927 26.3206C146.005 27.4859 144.082 28.6511 142.434 30.0905C140.786 31.5985 139.481 33.3806 138.177 35.1627L133.233 23.1676H111.465L106.453 35.2313C105.972 33.175 105.079 31.1872 103.5 29.3365C101.509 27.5544 99.586 25.7723 97.2514 24.7441C94.9167 23.716 92.3074 23.4418 89.6294 23.2362C82.076 23.2362 74.5914 23.2362 67.038 23.2362H51.1074V27.6915C48.0174 26.0464 44.9274 24.3329 41.6314 23.4418C38.3354 22.4822 34.8334 22.2766 31.3314 22.0709C29.8894 22.0709 28.516 22.1395 27.074 22.2766C23.7094 22.8934 20.276 23.4418 17.186 24.7441C14.096 26.0464 11.2807 28.0342 8.46535 30.0905C6.54269 32.0097 4.62002 33.9975 3.24669 36.2594C1.87335 38.5214 1.25535 41.1945 0.500021 43.8677C0.362688 46.4039 0.294021 48.94 0.843354 51.339C1.39269 53.738 2.62869 55.9999 3.86469 58.1933C5.37535 60.1811 6.95469 62.1003 8.74002 63.6768C10.594 65.2533 12.7227 66.4871 14.92 67.7209C18.216 69.0232 21.5807 70.3941 25.014 70.9424C28.4474 71.5593 32.018 71.3537 35.5887 71.2166C40.876 70.5311 46.026 68.8861 50.97 65.8016V68.2692H70.1967V53.0526H77.4753L86.5394 68.2692H112.221L113.869 63.8139H130.623L131.928 68.2007H151.223C156.167 69.7772 161.111 71.2851 166.055 71.2851C170.999 71.2851 175.943 69.7086 180.887 68.2007H197.23L198.535 63.8139H215.289L216.594 68.2007C222.362 68.2007 228.199 68.2007 233.967 68.2007H271.665V54.5605H244.404V23.1676H225.795V42.1542L217.899 23.1676L217.83 23.2362ZM184.664 50.6535H175.257C174.707 51.7502 173.952 52.7784 173.059 53.6695C170.038 56.4112 166.261 57.2337 162.553 56.137C161.317 55.7258 160.081 55.0403 159.051 54.2178C155.549 51.2019 154.519 47.2949 155.275 43.4565C155.549 42.1542 156.099 40.9204 156.785 39.7551C158.571 37.0819 160.974 35.6425 163.446 35.0942C165.987 34.5458 168.939 34.82 171.686 36.6707C172.853 37.4932 173.883 38.5214 174.639 39.7551H189.127L184.664 50.585V50.6535ZM99.174 52.7784L97.8007 51.2019C98.6934 50.7906 99.586 50.2423 100.479 49.6254L99.174 52.7784ZM23.0914 40.0293C26.9367 35.5054 31.606 34.6829 36.8247 37.4932C39.2967 39.0697 40.67 41.2631 41.3567 43.4565C42.1807 46.1297 42.112 49.4198 40.464 52.3671C39.7087 53.6695 38.6787 54.9032 37.4427 55.7943C35.108 57.5079 32.0867 58.1933 29.2714 57.5764C27.898 57.3023 26.5247 56.6854 25.3574 55.7943C21.1687 52.5042 20.07 47.9118 21.4434 43.4565C21.7867 42.2227 22.336 41.0575 23.16 40.0293H23.0914ZM84.754 36.6021C85.6467 36.4651 87.3634 37.7674 86.196 39.0012C85.784 39.4124 85.3034 39.5495 84.754 39.5495H70.2654V36.6021H84.754ZM124.237 50.9963H120.323L122.246 45.033L124.169 50.9963H124.237ZM208.835 50.9963H204.921L206.843 45.033L208.766 50.9963H208.835Z" fill="white"/>
<path fill-rule="evenodd" clip-rule="evenodd" d="M31.4 24.6755C47.056 24.6755 59.828 34.6143 59.828 46.815C59.828 59.0158 47.056 68.9545 31.4 68.9545C15.744 68.9545 2.97198 59.0158 2.97198 46.815C2.97198 34.6143 15.744 24.6755 31.4 24.6755ZM31.4 33.312C38.61 33.312 44.4467 39.4123 44.4467 46.815C44.4467 54.2177 38.5413 60.3181 31.4 60.3181C24.2587 60.3181 18.3533 54.2177 18.3533 46.815C18.3533 39.4123 24.2587 33.312 31.4 33.312ZM67.7247 33.9974H84.8227C87.226 33.9974 89.2173 35.8481 89.2173 38.0415C89.2173 40.2348 87.226 42.0855 84.8227 42.0855H67.7247V33.9974ZM69.5787 25.8407H89.698C97.732 25.8407 104.255 31.3927 104.187 38.1785C104.187 43.7991 99.586 48.5971 93.406 50.0366L107.345 65.8016H88.1187L79.0547 50.5849H67.7247V65.8016H53.7167V64.088L54.3347 63.6082L55.296 62.7171L56.2573 61.7575L57.15 60.7979L57.974 59.7697L58.7293 58.7416L59.416 57.6449L60.034 56.5482L60.5833 55.3829L61.064 54.2177L61.476 53.0525L61.8193 51.8187L62.094 50.5849L62.3 49.3511L62.4373 48.0488V46.7465V45.4441L62.3 44.1418L62.094 42.908L61.8193 41.6743L61.476 40.4405L61.064 39.2752L60.5833 38.11L60.034 36.9448L59.416 35.8481L58.7293 34.7514L57.974 33.7232L57.15 32.6951L56.2573 31.7355L55.296 30.7758L54.3347 29.8848L53.7167 29.405V25.7036H69.5787V25.8407ZM133.919 65.733H148.065L131.516 25.8407H113.182L101.165 54.8346L110.71 65.6645L111.946 61.3462H132.546L133.851 65.733H133.919ZM122.383 36.602L127.877 53.5323H116.89L122.383 36.602ZM193.934 53.2581C189.745 62.2373 178.553 68.8175 165.918 68.8175C153.283 68.8175 155.137 67.5151 150.88 65.3217L139.619 38.11C143.533 30.296 153.97 24.6069 166.193 24.6069C178.415 24.6069 188.166 29.8848 192.355 37.2875H176.218C173.815 34.2716 170.107 32.3523 165.918 32.3523C158.571 32.3523 152.665 38.3842 152.665 45.7869C152.665 53.1896 158.639 59.2214 165.918 59.2214C173.197 59.2214 174.57 56.8224 176.905 53.2581H193.934ZM218.585 65.733H232.731L216.182 25.8407H197.848L194.071 34.957C195.101 36.465 195.994 38.0415 197.024 39.755H192.08L187.548 50.6534H197.917C196.131 54.8346 194.277 58.6045 190.844 61.8946C189.333 63.334 187.685 64.5678 185.9 65.733H195.307L196.612 61.3462H217.212L218.517 65.733H218.585ZM207.049 36.602L212.543 53.5323H201.556L207.049 36.602ZM228.405 25.8407H241.863V57.2336H269.124V65.733H235.752L228.405 48.0488V25.8407Z" fill="black"/>
</g>
<defs>
<clipPath id="clip0_114_773">
<rect width="309" height="112" fill="white" transform="translate(0.5 -0.00012207)"/>
</clipPath>
</defs>
</svg>
