<svg width="238" height="132" viewBox="0 0 238 132" fill="none" xmlns="http://www.w3.org/2000/svg">
<g clip-path="url(#clip0_114_754)">
<path d="M196.905 65.5498H196.112C166.388 65.5498 136.665 65.5498 106.994 65.5498C106.307 65.5498 106.095 65.5498 106.201 64.6496C106.465 61.8963 107.682 59.5137 109.057 57.1839C110.855 54.2188 113.129 51.6244 115.562 49.1887C119.106 45.5353 123.125 42.5702 127.515 40.0287C131.482 37.699 135.766 35.9517 140.261 34.7868C142.218 34.2573 144.228 33.9397 146.238 33.6749C148.935 33.3043 151.632 33.3043 154.33 33.4102C156.921 33.5161 159.46 33.9926 161.999 34.575C166.177 35.581 170.196 37.1695 173.952 39.1815C176.966 40.77 179.769 42.6761 182.467 44.7411C184.9 46.5943 187.174 48.7122 189.236 50.989C191.616 53.5835 193.785 56.3897 195.372 59.5666C195.848 60.5197 196.218 61.4727 196.535 62.4258C196.852 63.3789 196.958 64.3849 197.011 65.4439L196.905 65.5498Z" fill="black"/>
<path d="M119.635 82.705C120.851 80.7989 122.015 78.9986 123.654 77.5161C125.188 76.1394 126.933 75.1864 129.102 75.2393C131.112 75.2393 133.068 75.3981 134.972 76.1924C137.247 77.1454 138.622 78.8398 139.521 81.0636C139.732 81.5931 139.891 82.1226 140.05 82.705C140.473 82.3344 140.579 81.8578 140.79 81.3813C141.954 79.0516 143.646 77.2513 146.026 76.1924C147.454 75.557 148.935 75.3452 150.469 75.2393C152.373 75.0805 154.224 75.2393 155.969 75.8747C158.191 76.7218 160.253 77.9397 161.364 80.2164C161.946 81.3813 162.104 82.5991 162.316 83.8699C162.898 88.2646 162.739 92.6593 162.739 97.054C162.739 107.379 162.739 117.651 162.739 127.976C162.739 128.646 162.404 128.982 161.734 128.982C158.984 128.982 156.181 128.982 153.431 128.982C152.902 128.982 152.743 128.823 152.743 128.293C152.743 116.698 152.743 105.155 152.743 93.5594C152.743 91.6003 152.743 89.6412 152.267 87.6821C151.738 85.4583 149.993 84.1346 147.719 84.1346C146.925 84.1346 146.132 84.1346 145.339 84.3464C142.853 85.0347 141.954 86.9409 141.531 89.2176C141.16 90.912 141.213 92.6593 141.213 94.4066C141.213 105.632 141.213 116.804 141.213 128.029C141.213 128.664 140.896 128.982 140.261 128.982C137.511 128.982 134.708 128.982 131.958 128.982C131.376 128.982 131.217 128.823 131.217 128.24C131.217 117.015 131.217 105.79 131.217 94.5125C131.217 92.3416 131.27 90.1707 130.741 88.0528C130.265 86.1466 129.26 84.6641 127.198 84.1346C125.188 83.6581 123.337 83.9228 121.803 85.4583C120.692 86.5702 120.322 88.0528 120.005 89.5353C119.793 90.7531 119.688 91.9709 119.688 93.1888C119.688 104.784 119.688 116.327 119.688 127.923C119.688 128.593 119.353 128.929 118.683 128.929C115.985 128.929 113.288 128.929 110.591 128.929C109.85 128.929 109.639 128.717 109.639 127.976C109.639 110.979 109.639 93.983 109.639 76.9866C109.639 76.8807 109.639 76.7218 109.639 76.6159C109.639 76.1924 109.744 76.0335 110.168 76.0335C113.076 76.0335 116.038 76.0335 118.947 76.0335C119.423 76.0335 119.529 76.2453 119.529 76.6689C119.529 78.4162 119.529 80.1635 119.529 81.9108C119.529 82.1755 119.529 82.3873 119.529 82.6521L119.635 82.705Z" fill="black"/>
<path d="M203.358 76.7748C203.358 76.2983 203.199 76.1394 202.723 76.1394C199.92 76.1394 197.064 76.1394 194.261 76.1394C193.732 76.1394 193.626 76.3512 193.626 76.8278C193.626 78.3103 193.732 79.7929 193.415 81.3284C191.775 78.7868 189.66 77.0395 186.909 75.9806C184.529 75.0275 182.149 74.8687 179.716 75.7158C176.649 76.7748 174.851 79.1575 173.581 82.0167C172.312 84.8759 171.624 87.9469 171.201 91.0708C170.831 93.7712 170.62 96.4716 170.514 99.1719C170.408 102.508 170.514 105.843 170.725 109.179C170.99 112.091 171.36 115.003 172.1 117.81C173 121.304 174.375 124.587 177.072 127.076C178.236 128.135 179.558 128.929 181.092 129.299C182.255 129.617 183.472 129.511 184.635 129.564C187.808 129.67 190.136 128.188 191.722 125.487C192.304 124.534 192.727 123.528 193.309 122.575C193.362 124.481 193.415 126.387 193.309 128.293C193.309 128.982 193.52 129.141 194.155 129.141C196.905 129.141 199.603 129.141 202.353 129.141C205.103 129.141 203.358 129.141 203.358 128.135V82.4932C203.358 80.5871 203.358 78.7339 203.358 76.8278V76.7748ZM193.732 106.002C193.573 109.709 193.362 113.415 191.987 116.91C191.405 118.392 190.717 119.769 189.395 120.775C187.597 122.099 184.794 121.145 183.736 119.663C182.467 117.863 181.885 115.798 181.568 113.68C181.197 111.297 180.986 108.914 180.933 105.685C180.774 104.096 180.827 101.66 180.827 99.2778C180.827 96.3127 180.933 93.3476 181.568 90.4884C182.044 88.3175 182.784 86.2525 184.741 85.0347C186.116 84.1876 187.597 83.8169 189.184 84.4523C190.4 84.9288 191.035 85.9349 191.511 86.9938C192.41 88.9529 192.621 91.0708 192.886 93.1358C193.203 95.6773 193.309 98.1659 193.468 100.707C193.573 102.455 193.838 104.202 193.732 105.949V106.002Z" fill="black"/>
<path d="M90.3342 95.7832C90.3342 89.5353 90.3342 83.2874 90.3342 77.0395C90.3342 76.2983 90.5458 76.0865 91.2862 76.1394C94.1951 76.1394 97.104 76.1394 100.066 76.1394C100.7 76.1394 100.859 76.2983 100.859 76.9336C100.859 87.5233 100.859 98.1129 100.859 108.703C100.859 111.668 100.753 114.686 100.277 117.598C99.8542 120.192 99.1138 122.734 97.58 124.905C95.7289 127.499 93.0844 128.982 89.964 129.67C88.2187 130.041 86.3676 130.2 84.6222 130.2C80.92 130.147 77.3236 129.67 74.2031 127.393C72.2462 125.911 70.924 123.952 70.0249 121.728C69.1258 119.451 68.7556 117.068 68.4911 114.633C68.1738 111.932 68.2267 109.232 68.2267 106.585C68.2267 96.7892 68.2267 86.9938 68.2267 77.1454C68.2267 76.51 68.544 76.1924 69.1787 76.1924C72.0347 76.1924 74.9436 76.1924 77.7996 76.1924C78.5929 76.1924 78.6987 76.4571 78.6987 77.1454C78.6987 89.2176 78.6987 101.343 78.6987 113.415C78.6987 116.009 79.4391 118.445 81.5547 120.192C83.9876 122.151 88.1129 121.781 89.488 118.445C90.1227 116.857 90.44 115.268 90.44 113.521C90.44 107.644 90.44 101.713 90.44 95.8362L90.3342 95.7832Z" fill="black"/>
<path d="M105.725 55.9132C103.874 53.6365 101.652 52.048 99.008 50.8832C96.9982 50.036 94.8827 49.4536 92.7671 48.977C90.9689 48.5534 89.2765 47.6533 87.6898 46.7002C86.3147 45.8531 85.0453 44.9 83.9347 43.7881C82.6124 42.4644 81.396 41.0877 80.3382 39.4993C80.1267 39.1816 80.2853 38.9169 80.3911 38.7051C82.1365 35.7929 84.1462 33.0925 86.3147 30.4981C88.536 27.8507 90.9689 25.3092 93.5076 22.9265C95.676 20.9144 97.9502 19.0083 100.277 17.2081C102.763 15.3019 105.302 13.5546 107.999 11.9132C109.004 11.3308 109.956 10.7484 111.12 10.2719C111.12 10.9602 111.014 11.5956 111.067 12.178C111.12 13.237 111.172 14.2959 111.331 15.3549C111.701 17.5787 112.389 19.7496 113.447 21.7087C114.346 23.403 115.404 24.9915 116.832 26.3681C119.159 28.5919 121.116 31.1335 122.226 34.2574C122.702 35.6341 123.072 37.0637 123.125 38.5462C123.125 39.0228 122.967 39.2875 122.649 39.4993C120.851 40.6641 119.106 41.9349 117.413 43.2586C114.928 45.2706 112.548 47.3886 110.432 49.8242C108.845 51.6244 107.364 53.4776 106.095 55.5426C106.042 55.6485 105.884 55.7544 105.778 55.8074L105.725 55.9132Z" fill="black"/>
<path d="M152.955 -9.07779e-05C152.479 1.11182 151.844 1.90605 151.474 2.91206C150.733 4.76525 150.257 6.67139 149.993 8.63047C149.887 9.58354 149.887 10.5896 149.887 11.5426C149.887 13.7665 150.31 15.8844 150.945 18.0023C151.738 20.4379 151.897 23.0324 151.738 25.5739C151.632 27.2153 151.051 28.7508 150.363 30.2334C150.31 30.3922 150.204 30.5511 149.993 30.4981C149.358 30.4452 148.724 30.604 148.089 30.6569C145.709 30.6569 143.435 31.1335 141.108 31.61C135.977 32.7219 131.217 34.7869 126.563 37.1696C126.352 37.2755 126.087 37.3814 125.823 37.5402C125.505 35.9518 125.241 34.3104 124.659 32.8278C123.496 29.7568 121.803 27.1094 119.264 25.0444C117.096 23.2971 115.985 20.8615 115.192 18.2671C114.452 15.8314 114.134 13.2899 114.028 10.7484C114.028 10.6425 114.028 10.5366 113.976 10.3778C113.658 9.10701 113.923 8.68342 114.98 8.04804C118.63 6.08896 122.438 4.55346 126.404 3.3886C129.631 2.43553 132.91 1.64131 136.242 1.05887C138.78 0.635288 141.372 0.26465 143.911 -9.07779e-05C146.872 -0.264832 149.834 -9.07779e-05 152.902 -0.158936L152.955 -9.07779e-05Z" fill="black"/>
<path d="M-7.12182e-06 89.2707C-7.12182e-06 76.4042 -7.12182e-06 63.4849 -7.12182e-06 50.6184C-7.12182e-06 49.2947 -0.158674 49.4536 1.16355 49.4536C4.01955 49.4536 6.92844 49.4536 9.78444 49.4536C10.4191 49.4536 10.7364 49.7713 10.7364 50.4066C10.7364 73.1214 10.7364 95.8892 10.7364 118.604C10.7364 119.592 11.2301 120.087 12.2173 120.087C17.4004 120.087 22.6364 120.087 27.8195 120.087C28.5071 120.087 28.7715 120.245 28.7187 120.987C28.7187 123.422 28.7187 125.911 28.7187 128.346C28.7187 128.876 28.6129 129.141 28.0311 129.141C18.9342 129.141 9.78444 129.141 0.687548 129.141C-7.09668e-06 129.141 -7.12182e-06 128.77 -7.12182e-06 128.294C-7.12182e-06 115.268 -7.12182e-06 102.296 -7.12182e-06 89.2707Z" fill="black"/>
<path d="M34.9067 89.2707C34.9067 76.4042 34.9067 63.4849 34.9067 50.6184C34.9067 49.2947 34.748 49.4536 36.0702 49.4536C38.9262 49.4536 41.8351 49.4536 44.6911 49.4536C45.3258 49.4536 45.6431 49.7713 45.6431 50.4066C45.6431 73.1214 45.6431 95.8892 45.6431 118.604C45.6431 119.592 46.1367 120.087 47.124 120.087C52.3071 120.087 57.5431 120.087 62.7262 120.087C63.4138 120.087 63.6782 120.245 63.6253 120.987C63.6253 123.422 63.6253 125.911 63.6253 128.346C63.6253 128.876 63.5196 129.141 62.9378 129.141C53.8409 129.141 44.6911 129.141 35.5942 129.141C34.8538 129.141 34.9067 128.823 34.9067 128.294C34.9067 115.268 34.9067 102.296 34.9067 89.2707Z" fill="black"/>
<path d="M197.17 55.225C196.905 55.3309 196.747 55.0661 196.535 54.8014C194.42 51.6774 191.828 48.8712 189.078 46.3297C185.746 43.2587 182.044 40.6112 178.077 38.2815C177.601 38.0168 177.495 37.8579 177.971 37.4873C179.769 36.0577 181.197 34.3634 182.414 32.4043C183.683 30.3393 184.582 28.1155 184.952 25.6798C185.217 23.7737 186.116 22.0794 187.068 20.385C187.914 18.9025 189.025 17.6317 190.188 16.4139C191.511 15.0372 193.044 13.8194 194.631 12.7605C194.948 12.5487 195.107 12.6546 195.319 12.7605C197.857 14.0842 200.237 15.6726 202.512 17.4729C205.738 20.0144 208.647 22.8206 211.503 25.7857C213.988 28.3802 216.263 31.2394 218.378 34.1516C219.753 36.0577 220.97 38.0697 222.133 40.0818C222.345 40.4524 222.345 40.5583 221.869 40.5583C218.167 40.5583 215.099 42.0408 212.137 44.2117C209.334 46.2767 207.324 49.1359 204.786 51.4656C203.146 52.9482 201.348 54.1131 199.232 54.8014C198.598 55.0132 197.91 55.1191 197.117 55.225H197.17Z" fill="black"/>
<path d="M153.484 30.7098C153.801 29.5979 154.277 28.539 154.488 27.3741C154.964 25.1503 155.229 22.9794 154.753 20.6497C154.488 19.1142 154.012 17.6846 153.536 16.202C152.743 13.6075 152.584 11.0131 153.008 8.31272C153.431 5.61236 154.383 3.17674 155.546 0.741122C155.758 0.370484 155.969 0.158691 156.445 0.158691C159.407 0.158691 162.316 0.476381 165.278 1.00586C169.509 1.74714 173.634 2.96495 177.707 4.28866C181.62 5.55941 185.376 7.14786 189.025 9.054C190.294 9.74233 191.511 10.4307 192.727 11.3308C190.4 12.4427 188.39 13.9782 186.698 15.8843C184.424 18.4788 182.837 21.4968 182.149 24.8855C181.885 26.1563 181.462 27.3741 180.986 28.5919C180.087 30.8157 178.87 32.8807 177.178 34.628C176.543 35.2634 175.75 35.7399 175.009 36.3223C174.745 36.5871 174.533 36.3223 174.375 36.2165C171.73 34.8927 169.033 33.7808 166.23 32.8807C163.585 32.0335 160.835 31.4511 158.032 31.1334C156.551 30.9746 155.07 30.7098 153.484 30.7098Z" fill="black"/>
<path d="M212.772 102.455C212.772 93.983 212.772 85.5642 212.772 77.0925C212.772 76.4571 213.089 76.1394 213.724 76.1394C216.263 76.1394 218.801 76.1394 221.287 76.1394C221.975 76.1394 222.239 76.2983 222.186 77.0396C222.133 78.7339 222.186 80.4812 222.186 82.1755C222.186 82.3873 222.08 82.6521 222.345 82.758C222.609 82.8109 222.662 82.5462 222.768 82.3344C223.508 80.9048 224.46 79.5811 225.571 78.4692C227.211 76.8807 229.115 75.7158 231.389 75.2923C231.548 75.2923 231.653 75.2393 231.812 75.1864C233.452 74.8157 233.822 75.0805 233.822 76.7219C233.822 79.2104 233.822 81.699 233.822 84.1876C233.822 84.7171 233.663 84.8759 233.134 84.8759C231.495 84.8759 229.908 84.7171 228.321 85.2995C225.73 86.1996 224.09 87.9469 223.561 90.6473C223.191 92.4475 223.032 94.2477 222.927 96.1009C222.609 101.29 222.821 106.479 222.821 111.615C222.821 117.121 222.821 122.628 222.821 128.135C222.821 128.77 222.662 129.035 221.975 128.982C219.172 128.982 216.368 128.982 213.565 128.982C212.878 128.982 212.772 128.77 212.772 128.135C212.772 119.557 212.772 111.032 212.772 102.455Z" fill="black"/>
<path d="M198.386 57.6076C200.555 57.2899 202.459 56.3898 204.257 55.225C206.848 53.5836 208.911 51.3068 210.815 48.9241C211.873 47.5475 213.354 46.5414 214.835 45.5884C217.479 43.894 220.282 42.888 223.456 42.941C223.826 42.941 223.984 43.0469 224.196 43.3645C225.888 46.1179 226.999 49.083 228.11 52.0481C229.379 55.5426 230.278 59.0902 231.124 62.6907C231.283 63.4849 231.336 64.385 231.6 65.1792C231.653 65.444 231.548 65.5499 231.283 65.5499C231.124 65.5499 230.966 65.5499 230.86 65.5499C221.234 65.5499 211.556 65.5499 201.93 65.5499C201.242 65.5499 201.031 65.3381 200.978 64.6497C200.925 62.9024 200.29 61.314 199.55 59.7256C199.232 59.0372 198.862 58.3489 198.492 57.6076H198.386Z" fill="black"/>
<path d="M79.0689 42.1467C80.6555 44.3706 82.348 46.4355 84.3578 48.2358C86.4733 50.1419 88.9591 51.3597 91.8151 51.8363C94.0364 52.2069 96.2049 52.8423 98.3204 53.7424C100.595 54.6955 102.604 55.9662 104.138 57.9253C104.403 58.243 104.403 58.5077 104.244 58.8254C103.398 60.308 102.869 61.8435 102.552 63.4849C102.446 63.9614 102.552 64.4379 102.446 64.9674C102.34 65.444 102.128 65.5499 101.652 65.5499C98.6907 65.5499 95.7289 65.5499 92.7142 65.5499C89.8582 65.5499 86.9493 65.6028 84.0933 65.5499C79.7564 65.391 75.4195 65.444 71.0826 65.444C70.6595 65.444 70.5009 65.4969 70.5538 64.8615C71.0826 61.261 72.0347 57.8194 73.2511 54.3778C74.2031 51.6774 75.208 49.03 76.4773 46.4885C77.2178 45.0059 77.9582 43.5234 79.0689 42.1997V42.1467Z" fill="black"/>
<path d="M234.192 127.182C233.716 126.705 233.769 126.493 234.351 126.229C234.985 125.911 235.144 125.223 234.985 124.587C234.88 124.005 234.456 123.528 233.822 123.369C232.764 123.158 231.759 123.21 230.701 123.21C230.331 123.21 230.172 123.316 230.172 123.687C230.172 125.328 230.172 126.97 230.172 128.611C230.172 129.088 230.437 129.088 230.807 129.088C231.124 129.088 231.548 129.194 231.495 128.611C231.495 128.135 231.495 127.658 231.495 127.235C231.495 126.705 231.706 126.652 232.129 126.864C232.5 127.023 232.711 127.34 232.976 127.658C233.557 128.399 233.928 129.617 235.408 129.035C235.144 128.346 234.721 127.711 234.192 127.182ZM232.817 125.646C232.394 125.805 231.918 125.752 231.442 125.646C231.019 125.593 231.23 125.17 231.177 124.905C231.177 124.693 231.124 124.375 231.495 124.375C231.759 124.375 231.971 124.375 232.235 124.375C232.341 124.375 232.5 124.375 232.605 124.375C232.976 124.375 233.293 124.481 233.399 124.852C233.504 125.275 233.187 125.487 232.817 125.593V125.646Z" fill="black"/>
<path d="M238 126.334C238.159 123.369 235.514 120.669 232.447 120.616C229.22 120.616 226.84 123.475 226.735 126.176C226.629 129.194 229.591 131.947 232.288 132C235.25 132.053 238.264 129.141 238 126.334ZM237.048 126.334C236.942 129.352 234.932 130.994 232.394 130.941C229.538 130.941 227.792 129.035 227.792 126.281C227.792 123.475 229.696 121.781 232.5 121.569C235.514 121.834 237.207 123.74 237.101 126.334H237.048Z" fill="black"/>
<path d="M234.192 127.182C233.716 126.705 233.769 126.493 234.351 126.229C234.985 125.911 235.144 125.223 234.985 124.587C234.88 124.005 234.456 123.528 233.822 123.369C232.764 123.158 231.759 123.21 230.701 123.21C230.331 123.21 230.172 123.316 230.172 123.687C230.172 125.328 230.172 126.97 230.172 128.611C230.172 129.088 230.437 129.088 230.807 129.088C231.124 129.088 231.548 129.194 231.495 128.611C231.495 128.135 231.495 127.658 231.495 127.235C231.495 126.705 231.706 126.652 232.129 126.864C232.5 127.023 232.711 127.34 232.976 127.658C233.557 128.399 233.928 129.617 235.408 129.035C235.144 128.346 234.721 127.711 234.192 127.182ZM232.817 125.646C232.394 125.805 231.918 125.752 231.442 125.646C231.019 125.593 231.23 125.17 231.177 124.905C231.177 124.693 231.124 124.375 231.495 124.375C231.759 124.375 231.971 124.375 232.235 124.375C232.341 124.375 232.5 124.375 232.605 124.375C232.976 124.375 233.293 124.481 233.399 124.852C233.504 125.275 233.187 125.487 232.817 125.593V125.646Z" fill="black"/>
<path d="M234.192 127.182C233.716 126.705 233.769 126.493 234.351 126.229C234.985 125.911 235.144 125.223 234.985 124.587C234.88 124.005 234.456 123.528 233.822 123.369C232.764 123.158 231.759 123.21 230.701 123.21C230.331 123.21 230.172 123.316 230.172 123.687C230.172 125.328 230.172 126.97 230.172 128.611C230.172 129.088 230.437 129.088 230.807 129.088C231.124 129.088 231.548 129.194 231.495 128.611C231.495 128.135 231.495 127.658 231.495 127.235C231.495 126.705 231.706 126.652 232.129 126.864C232.5 127.023 232.711 127.34 232.976 127.658C233.557 128.399 233.928 129.617 235.408 129.035C235.144 128.346 234.721 127.711 234.192 127.182ZM232.817 125.646C232.394 125.805 231.918 125.752 231.442 125.646C231.019 125.593 231.23 125.17 231.177 124.905C231.177 124.693 231.124 124.375 231.495 124.375C231.759 124.375 231.971 124.375 232.235 124.375C232.341 124.375 232.5 124.375 232.605 124.375C232.976 124.375 233.293 124.481 233.399 124.852C233.504 125.275 233.187 125.487 232.817 125.593V125.646Z" fill="black"/>
</g>
<defs>
<clipPath id="clip0_114_754">
<rect width="238" height="132" fill="white"/>
</clipPath>
</defs>
</svg>
