<svg width="24" height="24" viewBox="0 0 24 24" fill="none" xmlns="http://www.w3.org/2000/svg">
<rect width="24" height="23.55" transform="translate(0 0.356262)" fill="#FF5900"/>
<path d="M12 20.275L7.85002 22.775C7.66669 22.8917 7.47502 22.9417 7.27502 22.925C7.07502 22.9083 6.90002 22.8417 6.75002 22.725C6.60002 22.6083 6.48336 22.4627 6.40002 22.288C6.31669 22.1133 6.30002 21.9173 6.35002 21.7L7.45002 16.975L3.77502 13.8C3.60836 13.65 3.50436 13.479 3.46302 13.287C3.42169 13.095 3.43402 12.9077 3.50002 12.725C3.56602 12.5423 3.66602 12.3923 3.80002 12.275C3.93402 12.1577 4.11736 12.0827 4.35002 12.05L9.20002 11.625L11.075 7.17501C11.1584 6.97501 11.2877 6.82501 11.463 6.72501C11.6384 6.62501 11.8174 6.57501 12 6.57501C12.1827 6.57501 12.3617 6.62501 12.537 6.72501C12.7124 6.82501 12.8417 6.97501 12.925 7.17501L14.8 11.625L19.65 12.05C19.8834 12.0833 20.0667 12.1583 20.2 12.275C20.3334 12.3917 20.4334 12.5417 20.5 12.725C20.5667 12.9083 20.5794 13.096 20.538 13.288C20.4967 13.48 20.3924 13.6507 20.225 13.8L16.55 16.975L17.65 21.7C17.7 21.9167 17.6834 22.1127 17.6 22.288C17.5167 22.4633 17.4 22.609 17.25 22.725C17.1 22.841 16.925 22.9077 16.725 22.925C16.525 22.9423 16.3334 22.8923 16.15 22.775L12 20.275Z" fill="white"/>
</svg>
