<svg width="41" height="41" viewBox="0 0 41 41" fill="none" xmlns="http://www.w3.org/2000/svg">
<rect x="0.5" y="0.0683594" width="40" height="40" rx="20" fill="#151419"/>
<path d="M28.4268 12.1309C26.4512 10.1621 23.8171 9.06836 21.0366 9.06836C15.2561 9.06836 10.5732 13.735 10.5732 19.4954C10.5732 21.3184 11.0854 23.1413 11.9634 24.6725L10.5 30.0684L16.061 28.61C17.5976 29.4121 19.2805 29.8496 21.0366 29.8496C26.8171 29.8496 31.5 25.1829 31.5 19.4225C31.4268 16.7246 30.4024 14.0996 28.4268 12.1309ZM26.0854 23.2142C25.8659 23.7975 24.8415 24.3809 24.3293 24.4538C23.8902 24.5267 23.3049 24.5267 22.7195 24.3809C22.3537 24.235 21.8415 24.0892 21.2561 23.7975C18.622 22.7038 16.939 20.0788 16.7927 19.86C16.6463 19.7142 15.6951 18.4746 15.6951 17.1621C15.6951 15.8496 16.3537 15.2663 16.5732 14.9746C16.7927 14.6829 17.0854 14.6829 17.3049 14.6829C17.4512 14.6829 17.6707 14.6829 17.8171 14.6829C17.9634 14.6829 18.1829 14.61 18.4024 15.1204C18.622 15.6309 19.1341 16.9434 19.2073 17.0163C19.2805 17.1621 19.2805 17.3079 19.2073 17.4538C19.1341 17.5996 19.061 17.7454 18.9146 17.8913C18.7683 18.0371 18.6219 18.2559 18.5488 18.3288C18.4024 18.4746 18.2561 18.6204 18.4024 18.8392C18.5488 19.1309 19.061 19.9329 19.8659 20.6621C20.8902 21.5371 21.6951 21.8288 21.9878 21.9746C22.2805 22.1204 22.4268 22.0475 22.5732 21.9017C22.7195 21.7559 23.2317 21.1725 23.378 20.8809C23.5244 20.5892 23.7439 20.6621 23.9634 20.735C24.1829 20.8079 25.5 21.4642 25.7195 21.61C26.0122 21.7559 26.1585 21.8288 26.2317 21.9017C26.3049 22.1204 26.3049 22.6309 26.0854 23.2142Z" fill="#FBFBFB"/>
</svg>
